<?xml version="1.0" standalone="no"?>
<!DOCTYPE svg PUBLIC "-//W3C//DTD SVG 20010904//EN"
 "http://www.w3.org/TR/2001/REC-SVG-20010904/DTD/svg10.dtd">
<svg version="1.0" xmlns="http://www.w3.org/2000/svg"
 width="512.000000pt" height="512.000000pt" viewBox="0 0 512.000000 512.000000"
 preserveAspectRatio="xMidYMid meet">

<g transform="translate(0.000000,512.000000) scale(0.100000,-0.100000)"
fill="black" stroke="white">
<path d="M2335 4789 c-527 -54 -1015 -292 -1386 -676 -862 -893 -835 -2304 63
-3168 336 -324 743 -524 1223 -602 153 -24 495 -24 655 1 464 72 880 277 1214
596 371 356 599 801 678 1325 21 145 16 492 -10 645 -42 247 -99 424 -207 645
-318 647 -949 1109 -1665 1220 -127 19 -441 27 -565 14z m415 -319 c387 -40
749 -194 1045 -442 599 -504 832 -1322 588 -2067 -65 -201 -217 -478 -337
-616 l-35 -40 -22 55 c-145 350 -420 638 -766 804 l-81 39 64 64 c334 338 347
877 29 1238 -113 129 -289 234 -460 276 -125 31 -305 31 -428 1 -311 -77 -555
-305 -651 -609 -102 -325 -13 -682 229 -915 l54 -52 -119 -62 c-162 -83 -264
-158 -395 -289 -149 -148 -257 -310 -340 -510 l-16 -40 -35 40 c-119 137 -271
414 -337 615 -271 820 46 1728 767 2202 115 76 323 178 445 218 258 84 543
117 801 90z m-75 -995 c274 -58 467 -291 469 -565 0 -103 -15 -171 -61 -270
-68 -143 -228 -271 -388 -310 -64 -15 -206 -15 -270 0 -192 46 -365 208 -426
400 -28 86 -30 240 -5 325 50 167 161 301 312 372 125 60 242 75 369 48z m97
-1500 c370 -64 696 -301 871 -634 50 -93 111 -265 103 -286 -9 -24 -230 -163
-356 -224 -388 -187 -813 -237 -1239 -145 -148 32 -268 73 -421 146 -127 60
-347 198 -357 224 -7 18 48 177 89 259 174 345 501 591 878 660 102 18 327 18
432 0z"/>
</g>
</svg>
