<?xml version="1.0" standalone="no"?>
<!DOCTYPE svg PUBLIC "-//W3C//DTD SVG 20010904//EN"
 "http://www.w3.org/TR/2001/REC-SVG-20010904/DTD/svg10.dtd">
<svg version="1.0" xmlns="http://www.w3.org/2000/svg"
 width="512.000000pt" height="512.000000pt" viewBox="0 0 512.000000 512.000000"
 preserveAspectRatio="xMidYMid meet">

<g transform="translate(0.000000,512.000000) scale(0.100000,-0.100000)"
fill="#000000" stroke="none">
<path d="M2426 4900 c-566 -71 -998 -465 -1121 -1020 -11 -48 -19 -145 -22
-272 l-6 -198 -239 0 c-263 0 -280 -3 -340 -67 -62 -65 -58 24 -58 -1423 0
-1171 2 -1325 16 -1358 19 -47 58 -88 106 -113 36 -18 85 -19 1795 -19 1690 0
1760 1 1798 19 49 23 89 64 109 113 14 33 16 187 16 1358 0 1447 4 1358 -58
1423 -60 64 -77 67 -340 67 l-239 0 -6 198 c-3 127 -11 224 -22 272 -57 257
-169 465 -350 646 -189 191 -410 308 -673 358 -104 20 -276 27 -366 16z m369
-455 c227 -66 413 -218 519 -425 74 -142 88 -206 93 -422 l5 -188 -851 0 -851
0 0 164 c0 140 3 177 24 259 83 325 339 567 671 633 107 21 278 12 390 -21z
m1255 -2525 l0 -1070 -1490 0 -1490 0 0 1070 0 1070 1490 0 1490 0 0 -1070z"/>
<path d="M2451 2544 c-209 -56 -346 -264 -312 -474 16 -99 60 -178 141 -253
l70 -65 0 -236 0 -236 210 0 210 0 0 236 0 236 70 65 c115 107 165 241 140
382 -44 252 -287 410 -529 345z"/>
</g>
</svg>
